<svg xmlns="http://www.w3.org/2000/svg" xmlns:xlink="http://www.w3.org/1999/xlink" viewBox="0,0,256,256" width="100px" height="100px"><g fill-opacity="0.76863" fill="#bf6d63" fill-rule="nonzero" stroke="none" stroke-width="1" stroke-linecap="butt" stroke-linejoin="miter" stroke-miterlimit="10" stroke-dasharray="" stroke-dashoffset="0" font-family="none" font-weight="none" font-size="none" text-anchor="none" style="mix-blend-mode: normal"><g transform="scale(2.56,2.56)"><path d="M50,16c-22.607,0 -41,14.355 -41,32c0,8.573 4.257,16.59381 12,22.63281c-0.001,6.461 -0.07703,12.03016 -3.70703,15.66016c-0.286,0.286 -0.3718,0.71584 -0.2168,1.08984c0.155,0.374 0.51983,0.61719 0.92383,0.61719c5.156,0 14.58461,-1.21895 20.59961,-9.25195c3.689,0.831 7.52139,1.25195 11.40039,1.25195c22.607,0 41,-14.355 41,-32c0,-17.645 -18.393,-32 -41,-32zM50,18c21.505,0 39,13.458 39,30c0,16.542 -17.495,30 -39,30c-3.952,0 -7.85089,-0.45366 -11.58789,-1.34766c-0.399,-0.094 -0.81478,0.06344 -1.05078,0.39844c-4.733,6.739 -12.11659,8.51705 -17.18359,8.87305c2.823,-4.187 2.82227,-9.80408 2.82227,-15.70508v-0.07812c0,-0.313 -0.14553,-0.60692 -0.39453,-0.79492c-7.483,-5.687 -11.60547,-13.2677 -11.60547,-21.3457c0,-16.542 17.495,-30 39,-30zM50,21c-19.851,0 -36,12.112 -36,27c0,5.295 2.04883,10.42308 5.92383,14.83008c0.098,0.112 0.236,0.16992 0.375,0.16992c0.118,0 0.23508,-0.04005 0.33008,-0.12305c0.207,-0.183 0.22692,-0.50003 0.04492,-0.70703c-3.712,-4.223 -5.67383,-9.12192 -5.67383,-14.16992c0,-14.337 15.701,-26 35,-26c9.17,0 17.84669,2.6303 24.42969,7.4043c0.221,0.162 0.53526,0.11362 0.69727,-0.10937c0.162,-0.223 0.11267,-0.53722 -0.11133,-0.69922c-6.752,-4.899 -15.63562,-7.5957 -25.01562,-7.5957zM76.45508,29.88672c-0.1275,0.01125 -0.24989,0.07123 -0.33789,0.17773c-0.178,0.211 -0.1495,0.52708 0.0625,0.70508c0.238,0.198 0.47022,0.39952 0.69922,0.60352c0.095,0.085 0.21498,0.12695 0.33398,0.12695c0.137,0 0.27405,-0.05702 0.37305,-0.16602c0.184,-0.206 0.16498,-0.52108 -0.04102,-0.70508c-0.237,-0.212 -0.47861,-0.42095 -0.72461,-0.62695c-0.106,-0.0885 -0.23773,-0.12648 -0.36523,-0.11523zM78.78516,32c-0.12812,-0.00187 -0.25647,0.04608 -0.35547,0.14258c-0.198,0.192 -0.20277,0.50903 -0.00977,0.70703c0.312,0.321 0.61425,0.64747 0.90625,0.98047c0.098,0.112 0.236,0.16992 0.375,0.16992c0.117,0 0.23603,-0.04105 0.33203,-0.12305c0.207,-0.183 0.22692,-0.49808 0.04492,-0.70508c-0.303,-0.345 -0.61741,-0.68653 -0.94141,-1.01953c-0.0955,-0.099 -0.22344,-0.15047 -0.35156,-0.15234zM80.99609,34.50586c-0.12663,-0.0175 -0.25864,0.0122 -0.36914,0.0957c-0.221,0.167 -0.26466,0.48117 -0.09766,0.70117c2.925,3.862 4.4707,8.25227 4.4707,12.69727c0,14.337 -15.701,26 -35,26c-1.16,0 -2.32584,-0.04295 -3.46484,-0.12695c-0.278,-0.03 -0.5132,0.18789 -0.5332,0.46289c-0.02,0.275 0.18594,0.51416 0.46094,0.53516c1.163,0.085 2.35311,0.12891 3.53711,0.12891c19.851,0 36,-12.112 36,-27c0,-4.665 -1.61583,-9.26478 -4.67383,-13.30078c-0.083,-0.1105 -0.20345,-0.17586 -0.33008,-0.19336zM33,44c-2.206,0 -4,1.794 -4,4c0,2.206 1.794,4 4,4c2.206,0 4,-1.794 4,-4c0,-2.206 -1.794,-4 -4,-4zM50,44c-2.206,0 -4,1.794 -4,4c0,2.206 1.794,4 4,4c2.206,0 4,-1.794 4,-4c0,-2.206 -1.794,-4 -4,-4zM67,44c-2.206,0 -4,1.794 -4,4c0,2.206 1.794,4 4,4c2.206,0 4,-1.794 4,-4c0,-2.206 -1.794,-4 -4,-4zM33,45c1.654,0 3,1.346 3,3c0,1.654 -1.346,3 -3,3c-1.654,0 -3,-1.346 -3,-3c0,-1.654 1.346,-3 3,-3zM50,45c1.654,0 3,1.346 3,3c0,1.654 -1.346,3 -3,3c-1.654,0 -3,-1.346 -3,-3c0,-1.654 1.346,-3 3,-3zM67,45c1.654,0 3,1.346 3,3c0,1.654 -1.346,3 -3,3c-1.654,0 -3,-1.346 -3,-3c0,-1.654 1.346,-3 3,-3z"></path></g></g></svg>